<mxfile host="www.draw.io" modified="2019-11-05T14:17:27.539Z" agent="Mozilla/5.0 (Windows NT 10.0; Win64; x64) AppleWebKit/537.36 (KHTML, like Gecko) Chrome/78.0.3904.70 Safari/537.36" etag="NYzzuOCztPs_AS3IrCxY" version="12.2.0" type="github" pages="1">
  <diagram id="cqwOu6krj5GkITPIEeN5" name="Page-1">
    <mxGraphModel dx="888" dy="323" grid="1" gridSize="10" guides="1" tooltips="1" connect="1" arrows="1" fold="1" page="1" pageScale="1" pageWidth="1654" pageHeight="1169" math="0" shadow="0">
      <root>
        <mxCell id="0"/>
        <mxCell id="1" parent="0"/>
        <mxCell id="VruWZcMAolTUUJ3oUVH7-1" value="Movie" style="swimlane;fontStyle=0;childLayout=stackLayout;horizontal=1;startSize=26;fillColor=#e0e0e0;horizontalStack=0;resizeParent=1;resizeParentMax=0;resizeLast=0;collapsible=1;marginBottom=0;swimlaneFillColor=#ffffff;align=center;fontSize=14;" parent="1" vertex="1">
          <mxGeometry x="728" y="730" width="195" height="330" as="geometry"/>
        </mxCell>
        <mxCell id="VruWZcMAolTUUJ3oUVH7-2" value="movies_name: CharField" style="text;strokeColor=none;fillColor=none;spacingLeft=4;spacingRight=4;overflow=hidden;rotatable=0;points=[[0,0.5],[1,0.5]];portConstraint=eastwest;fontSize=12;" parent="VruWZcMAolTUUJ3oUVH7-1" vertex="1">
          <mxGeometry y="26" width="195" height="26" as="geometry"/>
        </mxCell>
        <mxCell id="VruWZcMAolTUUJ3oUVH7-3" value="movies_year: IntegerField" style="text;strokeColor=none;fillColor=none;spacingLeft=4;spacingRight=4;overflow=hidden;rotatable=0;points=[[0,0.5],[1,0.5]];portConstraint=eastwest;fontSize=12;" parent="VruWZcMAolTUUJ3oUVH7-1" vertex="1">
          <mxGeometry y="52" width="195" height="26" as="geometry"/>
        </mxCell>
        <mxCell id="VruWZcMAolTUUJ3oUVH7-4" value="movies_country: CharField" style="text;strokeColor=none;fillColor=none;spacingLeft=4;spacingRight=4;overflow=hidden;rotatable=0;points=[[0,0.5],[1,0.5]];portConstraint=eastwest;fontSize=12;" parent="VruWZcMAolTUUJ3oUVH7-1" vertex="1">
          <mxGeometry y="78" width="195" height="26" as="geometry"/>
        </mxCell>
        <mxCell id="VruWZcMAolTUUJ3oUVH7-5" value="movies_genre: ManyToManyField" style="text;strokeColor=none;fillColor=none;spacingLeft=4;spacingRight=4;overflow=hidden;rotatable=0;points=[[0,0.5],[1,0.5]];portConstraint=eastwest;fontSize=12;" parent="VruWZcMAolTUUJ3oUVH7-1" vertex="1">
          <mxGeometry y="104" width="195" height="26" as="geometry"/>
        </mxCell>
        <mxCell id="VruWZcMAolTUUJ3oUVH7-6" value="movies_director: CharField" style="text;strokeColor=none;fillColor=none;spacingLeft=4;spacingRight=4;overflow=hidden;rotatable=0;points=[[0,0.5],[1,0.5]];portConstraint=eastwest;fontSize=12;" parent="VruWZcMAolTUUJ3oUVH7-1" vertex="1">
          <mxGeometry y="130" width="195" height="26" as="geometry"/>
        </mxCell>
        <mxCell id="VruWZcMAolTUUJ3oUVH7-7" value="movies_actor: CharField" style="text;strokeColor=none;fillColor=none;spacingLeft=4;spacingRight=4;overflow=hidden;rotatable=0;points=[[0,0.5],[1,0.5]];portConstraint=eastwest;fontSize=12;" parent="VruWZcMAolTUUJ3oUVH7-1" vertex="1">
          <mxGeometry y="156" width="195" height="26" as="geometry"/>
        </mxCell>
        <mxCell id="VruWZcMAolTUUJ3oUVH7-8" value="movies_duration: TimeField" style="text;strokeColor=none;fillColor=none;spacingLeft=4;spacingRight=4;overflow=hidden;rotatable=0;points=[[0,0.5],[1,0.5]];portConstraint=eastwest;fontSize=12;" parent="VruWZcMAolTUUJ3oUVH7-1" vertex="1">
          <mxGeometry y="182" width="195" height="26" as="geometry"/>
        </mxCell>
        <mxCell id="VruWZcMAolTUUJ3oUVH7-9" value="movies_age_limit: CharField" style="text;strokeColor=none;fillColor=none;spacingLeft=4;spacingRight=4;overflow=hidden;rotatable=0;points=[[0,0.5],[1,0.5]];portConstraint=eastwest;fontSize=12;" parent="VruWZcMAolTUUJ3oUVH7-1" vertex="1">
          <mxGeometry y="208" width="195" height="26" as="geometry"/>
        </mxCell>
        <mxCell id="VruWZcMAolTUUJ3oUVH7-10" value="movies_premiere: DateField" style="text;strokeColor=none;fillColor=none;spacingLeft=4;spacingRight=4;overflow=hidden;rotatable=0;points=[[0,0.5],[1,0.5]];portConstraint=eastwest;fontSize=12;" parent="VruWZcMAolTUUJ3oUVH7-1" vertex="1">
          <mxGeometry y="234" width="195" height="26" as="geometry"/>
        </mxCell>
        <mxCell id="VruWZcMAolTUUJ3oUVH7-11" value="movies_story: TextField" style="text;strokeColor=none;fillColor=none;spacingLeft=4;spacingRight=4;overflow=hidden;rotatable=0;points=[[0,0.5],[1,0.5]];portConstraint=eastwest;fontSize=12;" parent="VruWZcMAolTUUJ3oUVH7-1" vertex="1">
          <mxGeometry y="260" width="195" height="26" as="geometry"/>
        </mxCell>
        <mxCell id="VruWZcMAolTUUJ3oUVH7-12" value="movies_trailer: CharField" style="text;strokeColor=none;fillColor=none;spacingLeft=4;spacingRight=4;overflow=hidden;rotatable=0;points=[[0,0.5],[1,0.5]];portConstraint=eastwest;fontSize=12;" parent="VruWZcMAolTUUJ3oUVH7-1" vertex="1">
          <mxGeometry y="286" width="195" height="22" as="geometry"/>
        </mxCell>
        <mxCell id="VruWZcMAolTUUJ3oUVH7-13" value="movies_other: ManyToManyField" style="text;strokeColor=none;fillColor=none;spacingLeft=4;spacingRight=4;overflow=hidden;rotatable=0;points=[[0,0.5],[1,0.5]];portConstraint=eastwest;fontSize=12;" parent="VruWZcMAolTUUJ3oUVH7-1" vertex="1">
          <mxGeometry y="308" width="195" height="22" as="geometry"/>
        </mxCell>
        <mxCell id="VruWZcMAolTUUJ3oUVH7-14" value="Content" style="swimlane;fontStyle=0;childLayout=stackLayout;horizontal=1;startSize=26;fillColor=#e0e0e0;horizontalStack=0;resizeParent=1;resizeParentMax=0;resizeLast=0;collapsible=1;marginBottom=0;swimlaneFillColor=#ffffff;align=center;fontSize=14;" parent="1" vertex="1">
          <mxGeometry x="1360" y="838" width="180" height="208" as="geometry"/>
        </mxCell>
        <mxCell id="VruWZcMAolTUUJ3oUVH7-15" value="category: CharField" style="text;strokeColor=none;fillColor=none;spacingLeft=4;spacingRight=4;overflow=hidden;rotatable=0;points=[[0,0.5],[1,0.5]];portConstraint=eastwest;fontSize=12;" parent="VruWZcMAolTUUJ3oUVH7-14" vertex="1">
          <mxGeometry y="26" width="180" height="26" as="geometry"/>
        </mxCell>
        <mxCell id="VruWZcMAolTUUJ3oUVH7-16" value="title: CharField" style="text;strokeColor=none;fillColor=none;spacingLeft=4;spacingRight=4;overflow=hidden;rotatable=0;points=[[0,0.5],[1,0.5]];portConstraint=eastwest;fontSize=12;" parent="VruWZcMAolTUUJ3oUVH7-14" vertex="1">
          <mxGeometry y="52" width="180" height="26" as="geometry"/>
        </mxCell>
        <mxCell id="VruWZcMAolTUUJ3oUVH7-17" value="text: TextField" style="text;strokeColor=none;fillColor=none;spacingLeft=4;spacingRight=4;overflow=hidden;rotatable=0;points=[[0,0.5],[1,0.5]];portConstraint=eastwest;fontSize=12;" parent="VruWZcMAolTUUJ3oUVH7-14" vertex="1">
          <mxGeometry y="78" width="180" height="26" as="geometry"/>
        </mxCell>
        <mxCell id="VruWZcMAolTUUJ3oUVH7-22" value="author: CharField" style="text;strokeColor=none;fillColor=none;spacingLeft=4;spacingRight=4;overflow=hidden;rotatable=0;points=[[0,0.5],[1,0.5]];portConstraint=eastwest;fontSize=12;" parent="VruWZcMAolTUUJ3oUVH7-14" vertex="1">
          <mxGeometry y="104" width="180" height="26" as="geometry"/>
        </mxCell>
        <mxCell id="VruWZcMAolTUUJ3oUVH7-23" value="pub_date: DateTimeField" style="text;strokeColor=none;fillColor=none;spacingLeft=4;spacingRight=4;overflow=hidden;rotatable=0;points=[[0,0.5],[1,0.5]];portConstraint=eastwest;fontSize=12;" parent="VruWZcMAolTUUJ3oUVH7-14" vertex="1">
          <mxGeometry y="130" width="180" height="26" as="geometry"/>
        </mxCell>
        <mxCell id="VruWZcMAolTUUJ3oUVH7-24" value="reference: CharField" style="text;strokeColor=none;fillColor=none;spacingLeft=4;spacingRight=4;overflow=hidden;rotatable=0;points=[[0,0.5],[1,0.5]];portConstraint=eastwest;fontSize=12;" parent="VruWZcMAolTUUJ3oUVH7-14" vertex="1">
          <mxGeometry y="156" width="180" height="26" as="geometry"/>
        </mxCell>
        <mxCell id="VruWZcMAolTUUJ3oUVH7-25" value="owner: ForeignKey(&#39;auth.User)&#39;" style="text;strokeColor=none;fillColor=none;spacingLeft=4;spacingRight=4;overflow=hidden;rotatable=0;points=[[0,0.5],[1,0.5]];portConstraint=eastwest;fontSize=12;" parent="VruWZcMAolTUUJ3oUVH7-14" vertex="1">
          <mxGeometry y="182" width="180" height="26" as="geometry"/>
        </mxCell>
        <mxCell id="VruWZcMAolTUUJ3oUVH7-18" value="Genre" style="swimlane;fontStyle=0;childLayout=stackLayout;horizontal=1;startSize=26;fillColor=#e0e0e0;horizontalStack=0;resizeParent=1;resizeParentMax=0;resizeLast=0;collapsible=1;marginBottom=0;swimlaneFillColor=#ffffff;align=center;fontSize=14;" parent="1" vertex="1">
          <mxGeometry x="960" y="880" width="160" height="52" as="geometry"/>
        </mxCell>
        <mxCell id="VruWZcMAolTUUJ3oUVH7-19" value="genres_name: CharField" style="text;strokeColor=none;fillColor=none;spacingLeft=4;spacingRight=4;overflow=hidden;rotatable=0;points=[[0,0.5],[1,0.5]];portConstraint=eastwest;fontSize=12;" parent="VruWZcMAolTUUJ3oUVH7-18" vertex="1">
          <mxGeometry y="26" width="160" height="26" as="geometry"/>
        </mxCell>
        <mxCell id="VruWZcMAolTUUJ3oUVH7-32" value="CinemasInformation" style="swimlane;fontStyle=0;childLayout=stackLayout;horizontal=1;startSize=26;fillColor=#e0e0e0;horizontalStack=0;resizeParent=1;resizeParentMax=0;resizeLast=0;collapsible=1;marginBottom=0;swimlaneFillColor=#ffffff;align=center;fontSize=14;" parent="1" vertex="1">
          <mxGeometry x="410" y="298" width="200" height="104" as="geometry"/>
        </mxCell>
        <mxCell id="VruWZcMAolTUUJ3oUVH7-33" value="cinemas_address: CharField" style="text;strokeColor=none;fillColor=none;spacingLeft=4;spacingRight=4;overflow=hidden;rotatable=0;points=[[0,0.5],[1,0.5]];portConstraint=eastwest;fontSize=12;" parent="VruWZcMAolTUUJ3oUVH7-32" vertex="1">
          <mxGeometry y="26" width="200" height="26" as="geometry"/>
        </mxCell>
        <mxCell id="VruWZcMAolTUUJ3oUVH7-34" value="cinemas_official_website: CharField" style="text;strokeColor=none;fillColor=none;spacingLeft=4;spacingRight=4;overflow=hidden;rotatable=0;points=[[0,0.5],[1,0.5]];portConstraint=eastwest;fontSize=12;" parent="VruWZcMAolTUUJ3oUVH7-32" vertex="1">
          <mxGeometry y="52" width="200" height="26" as="geometry"/>
        </mxCell>
        <mxCell id="VruWZcMAolTUUJ3oUVH7-35" value="cinemas_social_media: CharField" style="text;strokeColor=none;fillColor=none;spacingLeft=4;spacingRight=4;overflow=hidden;rotatable=0;points=[[0,0.5],[1,0.5]];portConstraint=eastwest;fontSize=12;" parent="VruWZcMAolTUUJ3oUVH7-32" vertex="1">
          <mxGeometry y="78" width="200" height="26" as="geometry"/>
        </mxCell>
        <mxCell id="VruWZcMAolTUUJ3oUVH7-36" value="CinemasSession" style="swimlane;fontStyle=0;childLayout=stackLayout;horizontal=1;startSize=26;fillColor=#e0e0e0;horizontalStack=0;resizeParent=1;resizeParentMax=0;resizeLast=0;collapsible=1;marginBottom=0;swimlaneFillColor=#ffffff;align=center;fontSize=14;" parent="1" vertex="1">
          <mxGeometry x="390" y="558" width="190" height="182" as="geometry"/>
        </mxCell>
        <mxCell id="VruWZcMAolTUUJ3oUVH7-37" value="movies_name: ForeignKey" style="text;strokeColor=none;fillColor=none;spacingLeft=4;spacingRight=4;overflow=hidden;rotatable=0;points=[[0,0.5],[1,0.5]];portConstraint=eastwest;fontSize=12;" parent="VruWZcMAolTUUJ3oUVH7-36" vertex="1">
          <mxGeometry y="26" width="190" height="26" as="geometry"/>
        </mxCell>
        <mxCell id="VruWZcMAolTUUJ3oUVH7-38" value="movies_date: DateField" style="text;strokeColor=none;fillColor=none;spacingLeft=4;spacingRight=4;overflow=hidden;rotatable=0;points=[[0,0.5],[1,0.5]];portConstraint=eastwest;fontSize=12;" parent="VruWZcMAolTUUJ3oUVH7-36" vertex="1">
          <mxGeometry y="52" width="190" height="26" as="geometry"/>
        </mxCell>
        <mxCell id="VruWZcMAolTUUJ3oUVH7-39" value="movies_time: TimeField" style="text;strokeColor=none;fillColor=none;spacingLeft=4;spacingRight=4;overflow=hidden;rotatable=0;points=[[0,0.5],[1,0.5]];portConstraint=eastwest;fontSize=12;" parent="VruWZcMAolTUUJ3oUVH7-36" vertex="1">
          <mxGeometry y="78" width="190" height="26" as="geometry"/>
        </mxCell>
        <mxCell id="VruWZcMAolTUUJ3oUVH7-49" value="movies_hall: CharField" style="text;strokeColor=none;fillColor=none;spacingLeft=4;spacingRight=4;overflow=hidden;rotatable=0;points=[[0,0.5],[1,0.5]];portConstraint=eastwest;fontSize=12;" parent="VruWZcMAolTUUJ3oUVH7-36" vertex="1">
          <mxGeometry y="104" width="190" height="26" as="geometry"/>
        </mxCell>
        <mxCell id="VruWZcMAolTUUJ3oUVH7-50" value="movies_format: CharField" style="text;strokeColor=none;fillColor=none;spacingLeft=4;spacingRight=4;overflow=hidden;rotatable=0;points=[[0,0.5],[1,0.5]];portConstraint=eastwest;fontSize=12;" parent="VruWZcMAolTUUJ3oUVH7-36" vertex="1">
          <mxGeometry y="130" width="190" height="26" as="geometry"/>
        </mxCell>
        <mxCell id="VruWZcMAolTUUJ3oUVH7-51" value="movies_price: OneToOneField" style="text;strokeColor=none;fillColor=none;spacingLeft=4;spacingRight=4;overflow=hidden;rotatable=0;points=[[0,0.5],[1,0.5]];portConstraint=eastwest;fontSize=12;" parent="VruWZcMAolTUUJ3oUVH7-36" vertex="1">
          <mxGeometry y="156" width="190" height="26" as="geometry"/>
        </mxCell>
        <mxCell id="VruWZcMAolTUUJ3oUVH7-44" value="CinemasSessionsPrice" style="swimlane;fontStyle=0;childLayout=stackLayout;horizontal=1;startSize=26;fillColor=#e0e0e0;horizontalStack=0;resizeParent=1;resizeParentMax=0;resizeLast=0;collapsible=1;marginBottom=0;swimlaneFillColor=#ffffff;align=center;fontSize=14;" parent="1" vertex="1">
          <mxGeometry x="160" y="828" width="160" height="104" as="geometry"/>
        </mxCell>
        <mxCell id="VruWZcMAolTUUJ3oUVH7-45" value="child_ticket: IntegerField" style="text;strokeColor=none;fillColor=none;spacingLeft=4;spacingRight=4;overflow=hidden;rotatable=0;points=[[0,0.5],[1,0.5]];portConstraint=eastwest;fontSize=12;" parent="VruWZcMAolTUUJ3oUVH7-44" vertex="1">
          <mxGeometry y="26" width="160" height="26" as="geometry"/>
        </mxCell>
        <mxCell id="VruWZcMAolTUUJ3oUVH7-46" value="adult_ticket: IntegerField" style="text;strokeColor=none;fillColor=none;spacingLeft=4;spacingRight=4;overflow=hidden;rotatable=0;points=[[0,0.5],[1,0.5]];portConstraint=eastwest;fontSize=12;" parent="VruWZcMAolTUUJ3oUVH7-44" vertex="1">
          <mxGeometry y="52" width="160" height="26" as="geometry"/>
        </mxCell>
        <mxCell id="VruWZcMAolTUUJ3oUVH7-47" value="student_ticket: IntegerField" style="text;strokeColor=none;fillColor=none;spacingLeft=4;spacingRight=4;overflow=hidden;rotatable=0;points=[[0,0.5],[1,0.5]];portConstraint=eastwest;fontSize=12;" parent="VruWZcMAolTUUJ3oUVH7-44" vertex="1">
          <mxGeometry y="78" width="160" height="26" as="geometry"/>
        </mxCell>
        <mxCell id="VruWZcMAolTUUJ3oUVH7-52" value="Cinema" style="swimlane;fontStyle=0;childLayout=stackLayout;horizontal=1;startSize=26;fillColor=#e0e0e0;horizontalStack=0;resizeParent=1;resizeParentMax=0;resizeLast=0;collapsible=1;marginBottom=0;swimlaneFillColor=#ffffff;align=center;fontSize=14;" parent="1" vertex="1">
          <mxGeometry x="55" y="330" width="225" height="182" as="geometry"/>
        </mxCell>
        <mxCell id="VruWZcMAolTUUJ3oUVH7-53" value="cinemas_name: CharField" style="text;strokeColor=none;fillColor=none;spacingLeft=4;spacingRight=4;overflow=hidden;rotatable=0;points=[[0,0.5],[1,0.5]];portConstraint=eastwest;fontSize=12;" parent="VruWZcMAolTUUJ3oUVH7-52" vertex="1">
          <mxGeometry y="26" width="225" height="26" as="geometry"/>
        </mxCell>
        <mxCell id="VruWZcMAolTUUJ3oUVH7-54" value="cinemas_information: OneToOneField" style="text;strokeColor=none;fillColor=none;spacingLeft=4;spacingRight=4;overflow=hidden;rotatable=0;points=[[0,0.5],[1,0.5]];portConstraint=eastwest;fontSize=12;" parent="VruWZcMAolTUUJ3oUVH7-52" vertex="1">
          <mxGeometry y="52" width="225" height="26" as="geometry"/>
        </mxCell>
        <mxCell id="VruWZcMAolTUUJ3oUVH7-55" value="cinemas_actions: TextField" style="text;strokeColor=none;fillColor=none;spacingLeft=4;spacingRight=4;overflow=hidden;rotatable=0;points=[[0,0.5],[1,0.5]];portConstraint=eastwest;fontSize=12;" parent="VruWZcMAolTUUJ3oUVH7-52" vertex="1">
          <mxGeometry y="78" width="225" height="26" as="geometry"/>
        </mxCell>
        <mxCell id="VruWZcMAolTUUJ3oUVH7-60" value="cinemas_sessions: OneToOneField" style="text;strokeColor=none;fillColor=none;spacingLeft=4;spacingRight=4;overflow=hidden;rotatable=0;points=[[0,0.5],[1,0.5]];portConstraint=eastwest;fontSize=12;" parent="VruWZcMAolTUUJ3oUVH7-52" vertex="1">
          <mxGeometry y="104" width="225" height="26" as="geometry"/>
        </mxCell>
        <mxCell id="VruWZcMAolTUUJ3oUVH7-61" value="cinemas_hall: CharField" style="text;strokeColor=none;fillColor=none;spacingLeft=4;spacingRight=4;overflow=hidden;rotatable=0;points=[[0,0.5],[1,0.5]];portConstraint=eastwest;fontSize=12;" parent="VruWZcMAolTUUJ3oUVH7-52" vertex="1">
          <mxGeometry y="130" width="225" height="26" as="geometry"/>
        </mxCell>
        <mxCell id="MYGVKCOiWB2upIYCmduq-2" value="owner: ForeignKey(&#39;auth.User&#39;)" style="text;strokeColor=none;fillColor=none;spacingLeft=4;spacingRight=4;overflow=hidden;rotatable=0;points=[[0,0.5],[1,0.5]];portConstraint=eastwest;fontSize=12;" vertex="1" parent="VruWZcMAolTUUJ3oUVH7-52">
          <mxGeometry y="156" width="225" height="26" as="geometry"/>
        </mxCell>
        <mxCell id="VruWZcMAolTUUJ3oUVH7-56" value="Ikinoman" style="swimlane;fontStyle=0;childLayout=stackLayout;horizontal=1;startSize=26;fillColor=#e0e0e0;horizontalStack=0;resizeParent=1;resizeParentMax=0;resizeLast=0;collapsible=1;marginBottom=0;swimlaneFillColor=#ffffff;align=center;fontSize=14;" parent="1" vertex="1">
          <mxGeometry x="746" y="200" width="195" height="104" as="geometry"/>
        </mxCell>
        <mxCell id="VruWZcMAolTUUJ3oUVH7-57" value="archive_name: CharField" style="text;strokeColor=none;fillColor=none;spacingLeft=4;spacingRight=4;overflow=hidden;rotatable=0;points=[[0,0.5],[1,0.5]];portConstraint=eastwest;fontSize=12;" parent="VruWZcMAolTUUJ3oUVH7-56" vertex="1">
          <mxGeometry y="26" width="195" height="26" as="geometry"/>
        </mxCell>
        <mxCell id="VruWZcMAolTUUJ3oUVH7-58" value="archive: ManyToManyField" style="text;strokeColor=none;fillColor=none;spacingLeft=4;spacingRight=4;overflow=hidden;rotatable=0;points=[[0,0.5],[1,0.5]];portConstraint=eastwest;fontSize=12;" parent="VruWZcMAolTUUJ3oUVH7-56" vertex="1">
          <mxGeometry y="52" width="195" height="26" as="geometry"/>
        </mxCell>
        <mxCell id="MYGVKCOiWB2upIYCmduq-1" value="owner: ForeignKey(&#39;auth.User&#39;)" style="text;strokeColor=none;fillColor=none;spacingLeft=4;spacingRight=4;overflow=hidden;rotatable=0;points=[[0,0.5],[1,0.5]];portConstraint=eastwest;fontSize=12;" vertex="1" parent="VruWZcMAolTUUJ3oUVH7-56">
          <mxGeometry y="78" width="195" height="26" as="geometry"/>
        </mxCell>
        <mxCell id="VruWZcMAolTUUJ3oUVH7-70" value="MoviesComment" style="swimlane;fontStyle=0;childLayout=stackLayout;horizontal=1;startSize=26;fillColor=#e0e0e0;horizontalStack=0;resizeParent=1;resizeParentMax=0;resizeLast=0;collapsible=1;marginBottom=0;swimlaneFillColor=#ffffff;align=center;fontSize=14;" parent="1" vertex="1">
          <mxGeometry x="1085" y="402" width="210" height="156" as="geometry"/>
        </mxCell>
        <mxCell id="VruWZcMAolTUUJ3oUVH7-71" value="movie: ForeignKey" style="text;strokeColor=none;fillColor=none;spacingLeft=4;spacingRight=4;overflow=hidden;rotatable=0;points=[[0,0.5],[1,0.5]];portConstraint=eastwest;fontSize=12;" parent="VruWZcMAolTUUJ3oUVH7-70" vertex="1">
          <mxGeometry y="26" width="210" height="26" as="geometry"/>
        </mxCell>
        <mxCell id="VruWZcMAolTUUJ3oUVH7-72" value="name_of_publication: CharField" style="text;strokeColor=none;fillColor=none;spacingLeft=4;spacingRight=4;overflow=hidden;rotatable=0;points=[[0,0.5],[1,0.5]];portConstraint=eastwest;fontSize=12;" parent="VruWZcMAolTUUJ3oUVH7-70" vertex="1">
          <mxGeometry y="52" width="210" height="26" as="geometry"/>
        </mxCell>
        <mxCell id="VruWZcMAolTUUJ3oUVH7-73" value="text_of_publication: TextField" style="text;strokeColor=none;fillColor=none;spacingLeft=4;spacingRight=4;overflow=hidden;rotatable=0;points=[[0,0.5],[1,0.5]];portConstraint=eastwest;fontSize=12;" parent="VruWZcMAolTUUJ3oUVH7-70" vertex="1">
          <mxGeometry y="78" width="210" height="26" as="geometry"/>
        </mxCell>
        <mxCell id="VruWZcMAolTUUJ3oUVH7-74" value="date_of_publication: DateTimeField" style="text;strokeColor=none;fillColor=none;spacingLeft=4;spacingRight=4;overflow=hidden;rotatable=0;points=[[0,0.5],[1,0.5]];portConstraint=eastwest;fontSize=12;" parent="VruWZcMAolTUUJ3oUVH7-70" vertex="1">
          <mxGeometry y="104" width="210" height="26" as="geometry"/>
        </mxCell>
        <mxCell id="VruWZcMAolTUUJ3oUVH7-75" value="owner: ForeignKey(&#39;auth.User&#39;)" style="text;strokeColor=none;fillColor=none;spacingLeft=4;spacingRight=4;overflow=hidden;rotatable=0;points=[[0,0.5],[1,0.5]];portConstraint=eastwest;fontSize=12;" parent="VruWZcMAolTUUJ3oUVH7-70" vertex="1">
          <mxGeometry y="130" width="210" height="26" as="geometry"/>
        </mxCell>
        <mxCell id="VruWZcMAolTUUJ3oUVH7-76" value="CinemasComment" style="swimlane;fontStyle=0;childLayout=stackLayout;horizontal=1;startSize=26;fillColor=#e0e0e0;horizontalStack=0;resizeParent=1;resizeParentMax=0;resizeLast=0;collapsible=1;marginBottom=0;swimlaneFillColor=#ffffff;align=center;fontSize=14;" parent="1" vertex="1">
          <mxGeometry x="410" y="50" width="210" height="156" as="geometry"/>
        </mxCell>
        <mxCell id="VruWZcMAolTUUJ3oUVH7-77" value="cinema: ForeignKey" style="text;strokeColor=none;fillColor=none;spacingLeft=4;spacingRight=4;overflow=hidden;rotatable=0;points=[[0,0.5],[1,0.5]];portConstraint=eastwest;fontSize=12;" parent="VruWZcMAolTUUJ3oUVH7-76" vertex="1">
          <mxGeometry y="26" width="210" height="26" as="geometry"/>
        </mxCell>
        <mxCell id="VruWZcMAolTUUJ3oUVH7-78" value="name_of_publication: CharField" style="text;strokeColor=none;fillColor=none;spacingLeft=4;spacingRight=4;overflow=hidden;rotatable=0;points=[[0,0.5],[1,0.5]];portConstraint=eastwest;fontSize=12;" parent="VruWZcMAolTUUJ3oUVH7-76" vertex="1">
          <mxGeometry y="52" width="210" height="26" as="geometry"/>
        </mxCell>
        <mxCell id="VruWZcMAolTUUJ3oUVH7-79" value="text_of_publication: TextField" style="text;strokeColor=none;fillColor=none;spacingLeft=4;spacingRight=4;overflow=hidden;rotatable=0;points=[[0,0.5],[1,0.5]];portConstraint=eastwest;fontSize=12;" parent="VruWZcMAolTUUJ3oUVH7-76" vertex="1">
          <mxGeometry y="78" width="210" height="26" as="geometry"/>
        </mxCell>
        <mxCell id="VruWZcMAolTUUJ3oUVH7-80" value="date_of_publication: DateTimeField" style="text;strokeColor=none;fillColor=none;spacingLeft=4;spacingRight=4;overflow=hidden;rotatable=0;points=[[0,0.5],[1,0.5]];portConstraint=eastwest;fontSize=12;" parent="VruWZcMAolTUUJ3oUVH7-76" vertex="1">
          <mxGeometry y="104" width="210" height="26" as="geometry"/>
        </mxCell>
        <mxCell id="VruWZcMAolTUUJ3oUVH7-81" value="owner: ForeignKey(&#39;auth.User&#39;)" style="text;strokeColor=none;fillColor=none;spacingLeft=4;spacingRight=4;overflow=hidden;rotatable=0;points=[[0,0.5],[1,0.5]];portConstraint=eastwest;fontSize=12;" parent="VruWZcMAolTUUJ3oUVH7-76" vertex="1">
          <mxGeometry y="130" width="210" height="26" as="geometry"/>
        </mxCell>
        <mxCell id="VruWZcMAolTUUJ3oUVH7-83" style="edgeStyle=orthogonalEdgeStyle;rounded=0;orthogonalLoop=1;jettySize=auto;html=1;" parent="1" source="VruWZcMAolTUUJ3oUVH7-58" target="VruWZcMAolTUUJ3oUVH7-1" edge="1">
          <mxGeometry relative="1" as="geometry">
            <Array as="points">
              <mxPoint x="727" y="265"/>
              <mxPoint x="727" y="370"/>
              <mxPoint x="825" y="370"/>
            </Array>
          </mxGeometry>
        </mxCell>
        <mxCell id="VruWZcMAolTUUJ3oUVH7-84" style="edgeStyle=orthogonalEdgeStyle;rounded=0;orthogonalLoop=1;jettySize=auto;html=1;entryX=0.5;entryY=0;entryDx=0;entryDy=0;" parent="1" source="VruWZcMAolTUUJ3oUVH7-71" target="VruWZcMAolTUUJ3oUVH7-1" edge="1">
          <mxGeometry relative="1" as="geometry"/>
        </mxCell>
        <mxCell id="VruWZcMAolTUUJ3oUVH7-86" style="edgeStyle=orthogonalEdgeStyle;rounded=0;orthogonalLoop=1;jettySize=auto;html=1;entryX=0.5;entryY=0;entryDx=0;entryDy=0;" parent="1" source="VruWZcMAolTUUJ3oUVH7-5" target="VruWZcMAolTUUJ3oUVH7-18" edge="1">
          <mxGeometry relative="1" as="geometry"/>
        </mxCell>
        <mxCell id="VruWZcMAolTUUJ3oUVH7-87" style="edgeStyle=orthogonalEdgeStyle;rounded=0;orthogonalLoop=1;jettySize=auto;html=1;entryX=0.5;entryY=0;entryDx=0;entryDy=0;" parent="1" source="VruWZcMAolTUUJ3oUVH7-13" target="VruWZcMAolTUUJ3oUVH7-14" edge="1">
          <mxGeometry relative="1" as="geometry">
            <Array as="points">
              <mxPoint x="1200" y="1049"/>
              <mxPoint x="1200" y="818"/>
              <mxPoint x="1450" y="818"/>
            </Array>
          </mxGeometry>
        </mxCell>
        <mxCell id="VruWZcMAolTUUJ3oUVH7-88" style="edgeStyle=orthogonalEdgeStyle;rounded=0;orthogonalLoop=1;jettySize=auto;html=1;entryX=0.5;entryY=0;entryDx=0;entryDy=0;" parent="1" source="VruWZcMAolTUUJ3oUVH7-37" target="VruWZcMAolTUUJ3oUVH7-1" edge="1">
          <mxGeometry relative="1" as="geometry"/>
        </mxCell>
        <mxCell id="VruWZcMAolTUUJ3oUVH7-89" style="edgeStyle=orthogonalEdgeStyle;rounded=0;orthogonalLoop=1;jettySize=auto;html=1;entryX=0.5;entryY=0;entryDx=0;entryDy=0;" parent="1" source="VruWZcMAolTUUJ3oUVH7-51" target="VruWZcMAolTUUJ3oUVH7-44" edge="1">
          <mxGeometry relative="1" as="geometry"/>
        </mxCell>
        <mxCell id="VruWZcMAolTUUJ3oUVH7-90" style="edgeStyle=orthogonalEdgeStyle;rounded=0;orthogonalLoop=1;jettySize=auto;html=1;entryX=0.5;entryY=0;entryDx=0;entryDy=0;" parent="1" source="VruWZcMAolTUUJ3oUVH7-77" target="VruWZcMAolTUUJ3oUVH7-52" edge="1">
          <mxGeometry relative="1" as="geometry"/>
        </mxCell>
        <mxCell id="VruWZcMAolTUUJ3oUVH7-91" style="edgeStyle=orthogonalEdgeStyle;rounded=0;orthogonalLoop=1;jettySize=auto;html=1;entryX=0.5;entryY=0;entryDx=0;entryDy=0;" parent="1" source="VruWZcMAolTUUJ3oUVH7-54" target="VruWZcMAolTUUJ3oUVH7-32" edge="1">
          <mxGeometry relative="1" as="geometry"/>
        </mxCell>
        <mxCell id="VruWZcMAolTUUJ3oUVH7-92" style="edgeStyle=orthogonalEdgeStyle;rounded=0;orthogonalLoop=1;jettySize=auto;html=1;entryX=0.5;entryY=0;entryDx=0;entryDy=0;" parent="1" source="VruWZcMAolTUUJ3oUVH7-60" target="VruWZcMAolTUUJ3oUVH7-36" edge="1">
          <mxGeometry relative="1" as="geometry"/>
        </mxCell>
      </root>
    </mxGraphModel>
  </diagram>
</mxfile>
